<svg aria-hidden="true" style="position: absolute; width: 0; height: 0" width="24" height="24"
  xmlns="http://www.w3.org/2000/svg" overflow="hidden">
  <defs>
    <symbol id="facebook" viewBox="0 0 24 24">
      <path
        d="M9.265 23.999v-9.187H6V11.01h3.265V8.116C9.265 4.82 11.185 3 14.122 3 15.528 3 17 3.257 17 3.257v3.236h-1.622c-1.598 0-2.096 1.013-2.096 2.053v2.465h3.566l-.57 3.802h-2.996V24l-4.017-.001Z"
        fill="currentcolor" />
    </symbol>
    <symbol id="instagram" viewBox="0 0 24 24">
      <path
        d="M12 1c-2.988 0-3.361.014-4.535.066-1.171.055-1.969.24-2.67.511a5.387 5.387 0 0 0-1.949 1.27 5.367 5.367 0 0 0-1.269 1.948c-.272.701-.457 1.499-.511 2.67C1.011 8.64 1 9.012 1 12c0 2.988.014 3.361.066 4.535.055 1.17.24 1.969.511 2.67.281.722.658 1.337 1.27 1.949a5.38 5.38 0 0 0 1.948 1.268c.702.272 1.5.458 2.67.512C8.64 22.989 9.012 23 12 23c2.988 0 3.361-.014 4.535-.066 1.17-.055 1.969-.24 2.67-.512a5.407 5.407 0 0 0 1.949-1.268c.61-.612.989-1.224 1.268-1.949.272-.701.458-1.5.512-2.67C22.989 15.36 23 14.988 23 12c0-2.988-.014-3.361-.066-4.535-.055-1.17-.24-1.97-.512-2.67a5.399 5.399 0 0 0-1.268-1.949 5.359 5.359 0 0 0-1.949-1.269c-.701-.272-1.5-.457-2.67-.511C15.36 1.011 14.988 1 12 1Zm0 1.98c2.936 0 3.286.015 4.446.065 1.072.05 1.654.228 2.041.38.515.2.88.438 1.267.822.384.385.622.75.821 1.266.15.387.33.969.379 2.041.052 1.16.064 1.509.064 4.446s-.014 3.286-.068 4.446c-.056 1.072-.234 1.654-.386 2.041-.205.515-.439.88-.824 1.267a3.43 3.43 0 0 1-1.265.821c-.385.15-.976.33-2.048.379-1.168.052-1.512.064-4.454.064-2.944 0-3.288-.014-4.455-.068-1.073-.056-1.664-.234-2.05-.386a3.406 3.406 0 0 1-1.263-.824 3.34 3.34 0 0 1-.825-1.265c-.152-.385-.33-.976-.385-2.048-.042-1.155-.056-1.512-.056-4.44 0-2.93.014-3.288.056-4.457.056-1.072.233-1.663.385-2.048.192-.522.439-.88.825-1.265.384-.384.742-.632 1.264-.824.385-.152.963-.33 2.036-.385 1.168-.042 1.512-.055 4.454-.055L12 2.98Zm0 3.371a5.648 5.648 0 1 0 0 11.297 5.648 5.648 0 0 0 0-11.296Zm0 9.316A3.666 3.666 0 0 1 8.333 12 3.666 3.666 0 0 1 12 8.333 3.666 3.666 0 0 1 15.667 12 3.666 3.666 0 0 1 12 15.667Zm7.192-9.538a1.32 1.32 0 0 1-2.64 0 1.32 1.32 0 0 1 2.64 0Z"
        fill="currentcolor" />
    </symbol>
    <symbol id="twitter" viewBox="0 0 24 24">
      <path
        d="M22.957 5.144a9.119 9.119 0 0 1-2.59.715 4.57 4.57 0 0 0 1.983-2.513 9.279 9.279 0 0 1-2.866 1.093 4.484 4.484 0 0 0-5.42-.903 4.528 4.528 0 0 0-1.983 2.132 4.568 4.568 0 0 0-.283 2.907c-3.749-.178-7.07-1.991-9.295-4.73a4.472 4.472 0 0 0-.61 2.284c0 1.578.797 2.965 2.005 3.78a4.473 4.473 0 0 1-2.042-.57v.056c0 1.049.36 2.065 1.019 2.877a4.508 4.508 0 0 0 2.598 1.578 4.551 4.551 0 0 1-2.027.078c.29.902.852 1.691 1.608 2.256.757.566 1.67.88 2.612.897a9.006 9.006 0 0 1-5.594 1.942A9.51 9.51 0 0 1 1 18.962 12.767 12.767 0 0 0 7.927 21c8.299 0 12.832-6.917 12.832-12.905 0-.194 0-.387-.014-.581A9.14 9.14 0 0 0 23 5.163l-.043-.019Z"
        fill="currentcolor" />
    </symbol>
    <symbol id="linkedin" viewBox="0 0 24 24">
      <path
        d="M20.447 20.452h-3.554v-5.569c0-1.328-.027-3.037-1.852-3.037-1.853 0-2.136 1.445-2.136 2.94v5.666H9.35V9h3.414v1.561h.046c.477-.9 1.637-1.85 3.37-1.85 3.6 0 4.267 2.37 4.267 5.455l-.001 6.286ZM5.337 7.433a2.062 2.062 0 0 1-2.063-2.065 2.064 2.064 0 1 1 2.063 2.065Zm1.782 13.02H3.555V9h3.564v11.452Z"
        fill="currentcolor" />
    </symbol>
    <symbol id="behance" viewBox="0 0 24 24">
      <g clip-path="url(#clip0_1306_5766)">
        <path
          d="M0 4.48v14.763h7.155a7.52 7.52 0 0 0 1.93-.248 5.148 5.148 0 0 0 1.68-.766 3.767 3.767 0 0 0 1.167-1.337c.286-.542.43-1.187.43-1.935 0-.924-.22-1.711-.668-2.37-.446-.653-1.119-1.113-2.028-1.374.668-.316 1.166-.723 1.506-1.218.338-.496.506-1.117.506-1.86 0-.688-.112-1.268-.337-1.732a2.86 2.86 0 0 0-.963-1.127 4.202 4.202 0 0 0-1.492-.608A9.092 9.092 0 0 0 6.96 4.48H0Zm15.667.99v1.457h5.985V5.471h-5.985ZM3.251 6.996h3.04c.288 0 .569.02.837.073.272.046.508.134.715.26.21.12.376.292.502.513.12.22.18.503.18.847 0 .619-.181 1.07-.555 1.343-.378.277-.854.414-1.43.414H3.25v-3.45ZM18.796 8.25c-.82 0-1.559.146-2.23.436-.67.29-1.246.688-1.731 1.192a5.247 5.247 0 0 0-1.12 1.79 6.27 6.27 0 0 0-.395 2.237c0 .826.129 1.589.384 2.278.258.692.62 1.282 1.086 1.781a4.84 4.84 0 0 0 1.726 1.15c.68.269 1.438.405 2.28.405 1.208 0 2.245-.277 3.095-.833.86-.553 1.49-1.47 1.906-2.757h-2.585c-.1.33-.36.649-.784.946-.43.3-.942.45-1.534.45-.824 0-1.46-.217-1.899-.647-.441-.429-.727-1.228-.727-2.074h7.713a7.571 7.571 0 0 0-.204-2.38 5.795 5.795 0 0 0-.94-2.028 4.734 4.734 0 0 0-1.666-1.417c-.68-.354-1.47-.529-2.375-.529Zm-.089 2.217c.721 0 1.313.21 1.661.596.35.389.607.943.677 1.691h-4.777a3.32 3.32 0 0 1 .134-.704c.075-.267.204-.517.394-.753.19-.233.44-.431.744-.59.31-.16.698-.24 1.167-.24ZM3.251 12.664h3.533c.7 0 1.269.16 1.695.484.426.328.64.868.64 1.629 0 .388-.063.71-.194.957-.13.249-.31.446-.528.59-.217.148-.475.249-.766.313-.286.064-.59.092-.912.092H3.252v-4.065Z"
          fill="currentcolor" />
      </g>
      <defs>
        <clipPath id="clip0_1306_5766">
          <path fill="currentcolor" d="M0 0h24v24H0z" />
        </clipPath>
      </defs>
    </symbol>
    <symbol id="pin" viewBox="0 0 24 24">
      <path
        d="M12 1C5.925 1 1 5.925 1 12c0 4.66 2.9 8.644 6.991 10.247-.096-.87-.183-2.21.039-3.16.2-.858 1.29-5.467 1.29-5.467s-.33-.659-.33-1.633c0-1.53.887-2.671 1.99-2.671.94 0 1.393.704 1.393 1.549 0 .944-.601 2.355-.912 3.662-.259 1.095.55 1.988 1.63 1.988 1.955 0 3.457-2.061 3.457-5.037 0-2.634-1.892-4.475-4.594-4.475-3.13 0-4.967 2.347-4.967 4.774 0 .945.364 1.959.818 2.51a.33.33 0 0 1 .076.315c-.083.348-.269 1.095-.305 1.248-.048.201-.16.244-.368.147-1.374-.64-2.233-2.648-2.233-4.261 0-3.47 2.521-6.657 7.268-6.657 3.816 0 6.782 2.719 6.782 6.353 0 3.791-2.39 6.842-5.708 6.842-1.115 0-2.163-.58-2.521-1.263 0 0-.552 2.1-.686 2.615-.248.955-.919 2.153-1.367 2.883 1.03.32 2.123.491 3.257.491 6.075 0 11-4.925 11-11S18.075 1 12 1Z"
        fill="currentcolor" />
    </symbol>
    <symbol id="vimeo" viewBox="0 0 24 24">
      <path
        d="M21.98 7.616c-.087 1.948-1.449 4.619-4.078 8.007-2.723 3.54-5.021 5.308-6.908 5.308-1.174 0-2.148-1.078-2.96-3.234l-1.6-5.928c-.598-2.153-1.24-3.232-1.926-3.232-.149 0-.671.315-1.567.944L2 8.266c.979-.861 1.951-1.73 2.917-2.606 1.316-1.14 2.305-1.738 2.962-1.8 1.556-.15 2.513.917 2.873 3.199.387 2.46.657 3.99.809 4.59.449 2.04.942 3.06 1.48 3.06.418 0 1.046-.663 1.887-1.987.837-1.324 1.283-2.33 1.343-3.023.12-1.143-.329-1.718-1.345-1.718-.478 0-.972.101-1.48.326.988-3.223 2.861-4.797 5.634-4.697 2.061.05 3.024 1.387 2.911 3.997l-.01.009Z"
        fill="currentcolor" />
    </symbol>
    <symbol id="dribbble" viewBox="0 0 24 24">
      <path
        d="M12 22C6.487 22 2 17.512 2 12 2 6.487 6.487 2 12 2c5.512 0 10 4.487 10 10 0 5.512-4.488 10-10 10Zm8.433-8.632c-.291-.091-2.641-.794-5.32-.365 1.117 3.07 1.573 5.57 1.66 6.09a8.567 8.567 0 0 0 3.663-5.725h-.003Zm-5.095 6.507c-.128-.75-.625-3.36-1.825-6.475l-.056.017c-4.825 1.679-6.55 5.02-6.7 5.333A8.468 8.468 0 0 0 12 20.555a8.48 8.48 0 0 0 3.333-.678l.005-.002Zm-9.684-2.15c.194-.333 2.538-4.213 6.944-5.638.112-.037.224-.07.337-.1-.217-.487-.45-.972-.693-1.45-4.267 1.275-8.404 1.221-8.779 1.213l-.003.26c0 2.194.832 4.197 2.195 5.713v.002Zm-2.016-7.463c.383.007 3.902.022 7.897-1.04a54.56 54.56 0 0 0-3.167-4.94 8.563 8.563 0 0 0-4.73 5.976v.005ZM10 3.71a45.577 45.577 0 0 1 3.185 5c3.037-1.138 4.325-2.867 4.478-3.085A8.491 8.491 0 0 0 12 3.47a8.56 8.56 0 0 0-2 .237v.003Zm8.613 2.902C18.43 6.854 17 8.69 13.843 9.98c.2.409.391.821.566 1.239.067.15.125.3.183.441 2.842-.358 5.667.217 5.95.275a8.453 8.453 0 0 0-1.925-5.316l-.005-.006Z"
        fill="currentcolor" stroke="currentcolor" stroke-width=".4" />
    </symbol>
    <symbol id="attachment" viewBox="0 0 24 24">
      <g clip-path="url(#clip0_1306_5770)" stroke="currentcolor" stroke-width="2" stroke-linecap="round"
        stroke-linejoin="round">
        <path
          d="M15 16.5h3.5A4.5 4.5 0 0 0 23 12v0a4.5 4.5 0 0 0-4.5-4.5H15M9 16.5H5.5A4.5 4.5 0 0 1 1 12v0a4.5 4.5 0 0 1 4.5-4.5H9M17 12H7" />
      </g>
      <defs>
        <clipPath id="clip0_1306_5770">
          <path fill="currentcolor" transform="translate(0 6.5)" d="M0 0h24v11H0z" />
        </clipPath>
      </defs>
    </symbol>
    <symbol id="menu" viewBox="0 0 28 12">
      <g clip-path="url(#clip0_1311_5382)">
        <path d="M26 1.5L2 1.5" stroke="currentColor" stroke-width="3" stroke-linecap="round" />
        <path d="M15 10.5L2 10.5" stroke="currentColor" stroke-width="3" stroke-linecap="round" />
      </g>
      <defs>
        <clipPath id="clip0_1311_5382">
          <rect width="28" height="12" fill="currentColor" transform="matrix(-1 0 0 1 28 0)" />
        </clipPath>
      </defs>
    </symbol>
    <symbol id="up" viewBox="0 0 24 24">
      <g clip-path="url(#clip0_1306_5772)">
        <path d="M12 22V2m0 0L2 9.619M12 2l10 7.619" stroke="currentcolor" stroke-width="4" stroke-linecap="round"
          stroke-linejoin="round" />
      </g>
      <defs>
        <clipPath id="clip0_1306_5772">
          <path fill="currentcolor" d="M0 0h24v24H0z" />
        </clipPath>
      </defs>
    </symbol>
    <symbol id="down" viewBox="0 0 24 24">
      <g clip-path="url(#clip0_1306_5773)">
        <path d="M12 2v20m0 0 10-7.619M12 22 2 14.381" stroke="currentcolor" stroke-width="4" stroke-linecap="round"
          stroke-linejoin="round" />
      </g>
      <defs>
        <clipPath id="clip0_1306_5773">
          <path fill="currentcolor" d="M0 0h24v24H0z" />
        </clipPath>
      </defs>
    </symbol>
    <symbol id="left" viewBox="0 0 24 24">
      <path d="M17 2 7 12l10 10" stroke="currentcolor" stroke-width="4" stroke-linecap="round"
        stroke-linejoin="round" />
    </symbol>
    <symbol id="right" viewBox="0 0 24 24">
      <path d="m7 22 10-10L7 2" stroke="currentcolor" stroke-width="4" stroke-linecap="round" stroke-linejoin="round" />
    </symbol>
    <symbol id="right-arrow" viewBox="0 0 19 14">
        <path d="M1.5 7H17.5M17.5 7L12.125 1.5M17.5 7L12.125 12.5" stroke="currentColor" stroke-width="2" stroke-linecap="round" stroke-linejoin="round"/>
    </symbol>
    <symbol id="play" viewBox="0 0 24 24">
      <path d="M6 20.556V3.445a.5.5 0 0 1 .78-.414l12.61 8.556a.5.5 0 0 1 0 .828L6.78 20.97a.5.5 0 0 1-.78-.413Z"
        fill="currentcolor" />
    </symbol>
    <symbol id="pause" viewBox="0 0 24 24">
      <path fill-rule="evenodd" clip-rule="evenodd" d="M10 4H6v16h4V4Zm8 0h-4v16h4V4Z" fill="currentcolor" />
    </symbol>
    <symbol id="like" viewBox="0 0 24 24">
      <path
        d="M2.332 21.333a1 1 0 0 1-1-1V9.666a1 1 0 0 1 1-1h3.333a1 1 0 0 1 1 1v10.667a1 1 0 0 1-1 1H2.332ZM6.668 10.648l7.581-8.65c.609-.693 1.752-.263 1.752.66v6.675h3.586a1 1 0 0 1 .707.293l1.572 1.572c.497.497.698 1.218.516 1.897-.66 2.451-1.72 6.026-2.168 7.53a.993.993 0 0 1-.956.708h-9.51a1 1 0 0 1-.706-.292l-2.374-2.374"
        stroke="currentcolor" stroke-width="2" stroke-linecap="round" stroke-linejoin="round" />
    </symbol>
    <symbol id="link" viewBox="0 0 24 24">
      <g clip-path="url(#a)" stroke="currentcolor" stroke-width="2" stroke-linecap="round" stroke-linejoin="round">
        <path
          d="M15 16.5h3.5A4.5 4.5 0 0 0 23 12v0a4.5 4.5 0 0 0-4.5-4.5H15M9 16.5H5.5A4.5 4.5 0 0 1 1 12v0a4.5 4.5 0 0 1 4.5-4.5H9M17 12H7" />
      </g>
      <defs>
        <clipPath id="a">
          <path fill="currentcolor" transform="translate(0 6.5)" d="M0 0h24v11H0z" />
        </clipPath>
      </defs>
    </symbol>
    <symbol id="bookmark" viewBox="0 0 24 24">
      <path d="M18 10.5V21l-6-3-6 3V6.997A2.994 2.994 0 0 1 8.995 4l2.505.002M15 4h3m0 0v3m0-3h3m-3 0V1"
        stroke="currentcolor" stroke-width="2" stroke-linecap="round" stroke-linejoin="round" />
    </symbol>
    <symbol id="share" viewBox="0 0 24 24">
      <g clip-path="url(#clip0_1306_5781)">
        <path
          d="M11.082 8.952a9.666 9.666 0 0 0-8.582 9.6v.612a11.4 11.4 0 0 1 8.582-4.117v3.227a1.222 1.222 0 0 0 1.979.959l7.99-6.31a1.179 1.179 0 0 0 0-1.851l-7.99-6.31a1.222 1.222 0 0 0-1.979.96v3.23Z"
          stroke="currentcolor" stroke-width="2" stroke-linecap="round" stroke-linejoin="round" />
      </g>
      <defs>
        <clipPath id="clip0_1306_5781">
          <path fill="currentcolor" d="M0 0h24v24H0z" />
        </clipPath>
      </defs>
    </symbol>
    <symbol id="open" viewBox="0 0 24 24">
      <path d="M19.5 9 12 15 4.5 9" stroke="currentcolor" stroke-width="3" stroke-linecap="round"
        stroke-linejoin="round" />
    </symbol>
    <symbol id="opened" viewBox="0 0 24 24">
      <path d="M4.5 15 12 9l7.5 6" stroke="currentcolor" stroke-width="3" stroke-linecap="round"
        stroke-linejoin="round" />
    </symbol>
    <symbol id="apple" viewBox="0 0 56 56">
      <path fill-rule="evenodd" clip-rule="evenodd"
        d="M37.7683 4C38.0882 6.83905 36.9358 9.63671 35.2515 11.6931C33.4939 13.7175 30.6822 15.2659 27.9438 15.0665C27.5853 12.3347 28.9728 9.42976 30.5261 7.65747C32.2818 5.64624 35.3305 4.10536 37.7683 4ZM46.7239 20.3796C46.4183 20.5577 41.3537 23.5088 41.4092 29.5272C41.4728 36.7951 47.921 39.1977 48 39.224C47.9615 39.3933 46.9902 42.6915 44.5716 46.0404C42.552 48.9885 40.436 51.8709 37.075 51.9235C35.4772 51.9595 34.3983 51.5109 33.2741 51.0435C32.1013 50.5559 30.8793 50.0478 28.9675 50.0478C26.9407 50.0478 25.6644 50.5722 24.4335 51.0779C23.3693 51.5152 22.3391 51.9385 20.887 51.9969C17.686 52.1117 15.2405 48.8493 13.1476 45.9275C8.96376 39.9615 5.70688 29.1152 10.0738 21.7344C12.1898 18.1146 16.0479 15.7835 20.172 15.7214C21.9881 15.6852 23.7299 16.3684 25.2568 16.9674C26.4245 17.4255 27.4665 17.8342 28.32 17.8342C29.0696 17.8342 30.0824 17.4418 31.2628 16.9845C33.123 16.2637 35.3996 15.3816 37.7187 15.6198C39.3047 15.665 43.8181 16.2313 46.73 20.376L46.7239 20.3796Z"
        fill="currentColor" />
    </symbol>
    <symbol id="google" viewBox="0 0 56 56">
      <path fill-rule="evenodd" clip-rule="evenodd"
        d="M11.696 8.60668C11.2548 9.0915 11 9.83231 11 10.802V45.1934C11 46.1631 11.2548 46.9039 11.7112 47.3693L11.8291 47.474L30.7233 28.2052V27.7747L11.8139 8.50195L11.696 8.60668Z"
        fill="url(#paint0_linear_1473_8366)" />
      <path fill-rule="evenodd" clip-rule="evenodd"
        d="M11.696 8.60668C11.2548 9.0915 11 9.83231 11 10.802V45.1934C11 46.1631 11.2548 46.9039 11.7112 47.3693L11.8291 47.474L30.7233 28.2052V27.7747L11.8139 8.50195L11.696 8.60668Z"
        fill="currentColor" />
      <path fill-rule="evenodd" clip-rule="evenodd"
        d="M37.005 34.6468L30.7031 28.22V27.7701L37.005 21.3433L37.1419 21.4286L44.5962 25.7493C46.7298 26.975 46.7298 28.9996 44.5962 30.2408L37.1419 34.5615L37.005 34.6468Z"
        fill="url(#paint1_linear_1473_8366)" />
      <path fill-rule="evenodd" clip-rule="evenodd"
        d="M37.005 34.6468L30.7031 28.22V27.7701L37.005 21.3433L37.1419 21.4286L44.5962 25.7493C46.7298 26.975 46.7298 28.9996 44.5962 30.2408L37.1419 34.5615L37.005 34.6468Z"
        fill="currentColor" />
      <path fill-rule="evenodd" clip-rule="evenodd"
        d="M37.005 34.6468L30.7031 28.22V27.7701L37.005 21.3433L37.1419 21.4286L44.5962 25.7493C46.7298 26.975 46.7298 28.9996 44.5962 30.2408L37.1419 34.5615L37.005 34.6468Z"
        fill="currentColor" fill-opacity="0.4" />
      <path fill-rule="evenodd" clip-rule="evenodd"
        d="M37.1228 34.5601L30.684 27.9937L11.6719 47.3827C12.3679 48.1429 13.5354 48.2283 14.8399 47.4875L37.1228 34.5601Z"
        fill="url(#paint2_linear_1473_8366)" />
      <path fill-rule="evenodd" clip-rule="evenodd"
        d="M37.1228 34.5601L30.684 27.9937L11.6719 47.3827C12.3679 48.1429 13.5354 48.2283 14.8399 47.4875L37.1228 34.5601Z"
        fill="currentColor" />
      <path fill-rule="evenodd" clip-rule="evenodd"
        d="M37.1228 34.5601L30.684 27.9937L11.6719 47.3827C12.3679 48.1429 13.5354 48.2283 14.8399 47.4875L37.1228 34.5601Z"
        fill="currentColor" fill-opacity="0.2" />
      <path fill-rule="evenodd" clip-rule="evenodd"
        d="M37.1228 21.4284L14.8399 8.52049C13.5354 7.76028 12.3641 7.86501 11.6719 8.62521L30.684 27.9949L37.1228 21.4284Z"
        fill="url(#paint3_linear_1473_8366)" />
      <path fill-rule="evenodd" clip-rule="evenodd"
        d="M37.1228 21.4284L14.8399 8.52049C13.5354 7.76028 12.3641 7.86501 11.6719 8.62521L30.684 27.9949L37.1228 21.4284Z"
        fill="currentColor" />
      <path fill-rule="evenodd" clip-rule="evenodd"
        d="M37.1228 21.4284L14.8399 8.52049C13.5354 7.76028 12.3641 7.86501 11.6719 8.62521L30.684 27.9949L37.1228 21.4284Z"
        fill="currentColor" fill-opacity="0.5" />
      <defs>
        <linearGradient id="paint0_linear_1473_8366" x1="29.054" y1="10.3877" x2="2.90177" y2="35.8403"
          gradientUnits="userSpaceOnUse">
          <stop stop-color="#00A0FF" />
          <stop offset="0.00657445" stop-color="#00A1FF" />
          <stop offset="0.2601" stop-color="#00BEFF" />
          <stop offset="0.5122" stop-color="#00D2FF" />
          <stop offset="0.7604" stop-color="#00DFFF" />
          <stop offset="1" stop-color="#00E3FF" />
        </linearGradient>
        <linearGradient id="paint1_linear_1473_8366" x1="47.3937" y1="27.919" x2="10.4589" y2="27.919"
          gradientUnits="userSpaceOnUse">
          <stop stop-color="#FFE000" />
          <stop offset="0.4087" stop-color="#FFBD00" />
          <stop offset="0.7754" stop-color="#FFA500" />
          <stop offset="1" stop-color="#FF9C00" />
        </linearGradient>
        <linearGradient id="paint2_linear_1473_8366" x1="33.6587" y1="31.5578" x2="-1.66248" y2="66.2358"
          gradientUnits="userSpaceOnUse">
          <stop stop-color="#FF3A44" />
          <stop offset="1" stop-color="#C31162" />
        </linearGradient>
        <linearGradient id="paint3_linear_1473_8366" x1="6.94334" y1="-2.90255" x2="22.7788" y2="12.5813"
          gradientUnits="userSpaceOnUse">
          <stop stop-color="#32A071" />
          <stop offset="0.0685" stop-color="#2DA771" />
          <stop offset="0.4762" stop-color="#15CF74" />
          <stop offset="0.8009" stop-color="#06E775" />
          <stop offset="1" stop-color="#00F076" />
        </linearGradient>
      </defs>
    </symbol>
    <symbol id="mouse" viewBox="0 0 18 26">
      <rect opacity="0.5" x="1" y="1" width="16" height="24" rx="8" stroke="currentColor" stroke-opacity="0.4"
        stroke-width="2" />
      <rect x="6" y="6" width="6" height="6" rx="3" fill="currentColor" />
    </symbol>
    <symbol id="heart" viewBox="0 0 22 19">
        <path d="M15.1111 0.833252C18.6333 0.833252 21 3.9995 21 6.95325C21 12.9351 11.1778 17.8333 11 17.8333C10.8222 17.8333 1 12.9351 1 6.95325C1 3.9995 3.36667 0.833252 6.88889 0.833252C8.91111 0.833252 10.2333 1.80013 11 2.65013C11.7667 1.80013 13.0889 0.833252 15.1111 0.833252Z" stroke="currentColor" stroke-width="1.5" stroke-linecap="round" stroke-linejoin="round"/>
    </symbol>
    <symbol id="down-arrow" viewBox="0 0 14 7">
      <path d="M12 2L7 5L2 2" stroke="currentColor" stroke-width="3" stroke-linecap="round" stroke-linejoin="round" />
    </symbol>
    <symbol id="close" viewBox="0 0 24 24">
      <path fill="currentColor" fill-rule="evenodd" d="M19.8163 22.6449c.781.7811 2.0473.7811 2.8284 0 .781-.781.781-2.0474 0-2.8284l-7.8166-7.8166 7.8166-7.8165c.781-.781.781-2.0474 0-2.8284-.7811-.7811-2.0474-.7811-2.8284 0l-7.8164 7.8163L4.1837 1.355c-.781-.781-2.0473-.781-2.8284 0-.781.781-.781 2.0473 0 2.8284L9.172 12l-7.8166 7.8166c-.781.7811-.781 2.0474 0 2.8284.781.7811 2.0474.7811 2.8284 0l7.8164-7.8163 7.8162 7.8162Z" clip-rule="evenodd"/>
    </symbol>
    <symbol id="down-arrow-large" viewBox="0 0 27 16">
        <path d="M24.6289 2L13.4691 13.6667L2.30934 2" stroke="currentColor" stroke-width="4" stroke-linecap="round" stroke-linejoin="round"/>
    </symbol>
  <symbol id="rewards"  viewBox="0 0 32 32" fill="none">
      <g clip-path="url(#clip0_1285_13322)">
          <path d="M6.33203 25.3327C5.77975 25.3327 5.33203 24.885 5.33203 24.3327V13.666C5.33203 13.1137 5.77975 12.666 6.33203 12.666H9.66536C10.2176 12.666 10.6654 13.1137 10.6654 13.666V24.3327C10.6654 24.885 10.2176 25.3327 9.66536 25.3327H6.33203Z" stroke="black" stroke-width="2" stroke-linecap="round" stroke-linejoin="round"/>
          <path d="M10.668 14.648L18.2493 5.99879C18.8577 5.30474 20.0013 5.73501 20.0013 6.65795V13.3333L23.5871 13.3333C23.8523 13.3333 24.1067 13.4387 24.2942 13.6262L25.8661 15.1981C26.3635 15.6955 26.5644 16.4161 26.3816 17.0954C25.7219 19.5463 24.6628 23.1207 24.2136 24.6248C24.0874 25.0475 23.6994 25.3333 23.2582 25.3333L13.7488 25.3333C13.4836 25.3333 13.2293 25.228 13.0417 25.0405L10.668 22.6668" stroke="black" stroke-width="2" stroke-linecap="round" stroke-linejoin="round"/>
      </g>
      <defs>
          <clipPath id="clip0_1285_13322">
              <rect width="32" height="32" fill="white"/>
          </clipPath>
      </defs>
  </symbol>
  <symbol id="mouse-down" width="18" height="47" viewBox="0 0 18 47" fill="none" xmlns="http://www.w3.org/2000/svg">
      <path d="M14 42L9 45L4 42" stroke="black" stroke-width="3" stroke-linecap="round" stroke-linejoin="round"/>
      <rect opacity="0.5" x="1" y="1" width="16" height="24" rx="8" stroke="black" stroke-opacity="0.4" stroke-width="2"/>
      <rect x="6" y="6" width="6" height="6" rx="3" fill="black"/>
  </symbol>
  </defs>
</svg>